<?xml version="1.0" encoding="UTF-8" standalone="no"?>
<!-- Created with Inkscape (http://www.inkscape.org/) -->

<svg
   xmlns:dc="http://purl.org/dc/elements/1.1/"
   xmlns:cc="http://creativecommons.org/ns#"
   xmlns:rdf="http://www.w3.org/1999/02/22-rdf-syntax-ns#"
   xmlns:svg="http://www.w3.org/2000/svg"
   xmlns="http://www.w3.org/2000/svg"
   xmlns:sodipodi="http://sodipodi.sourceforge.net/DTD/sodipodi-0.dtd"
   xmlns:inkscape="http://www.inkscape.org/namespaces/inkscape"
   width="85.686432mm"
   height="85.686432mm"
   viewBox="0 0 85.686432 85.686434"
   version="1.1"
   id="svg1265"
   inkscape:version="0.92.4 (5da689c313, 2019-01-14)"
   sodipodi:docname="rotated-g.svg"
   inkscape:export-filename="B:\Data\websites\personal-website\static\img\icon.png"
   inkscape:export-xdpi="18.969999"
   inkscape:export-ydpi="18.969999">
  <defs
     id="defs1259" />
  <sodipodi:namedview
     id="base"
     pagecolor="#ffffff"
     bordercolor="#666666"
     borderopacity="1.0"
     inkscape:pageopacity="0.0"
     inkscape:pageshadow="2"
     inkscape:zoom="0.9899495"
     inkscape:cx="244.3244"
     inkscape:cy="252.84962"
     inkscape:document-units="mm"
     inkscape:current-layer="layer1"
     showgrid="false"
     fit-margin-top="0"
     fit-margin-left="0"
     fit-margin-right="0"
     fit-margin-bottom="0"
     inkscape:window-width="1920"
     inkscape:window-height="1013"
     inkscape:window-x="-9"
     inkscape:window-y="-9"
     inkscape:window-maximized="1"
     inkscape:snap-page="true" />
  <metadata
     id="metadata1262">
    <rdf:RDF>
      <cc:Work
         rdf:about="">
        <dc:format>image/svg+xml</dc:format>
        <dc:type
           rdf:resource="http://purl.org/dc/dcmitype/StillImage" />
        <dc:title />
      </cc:Work>
    </rdf:RDF>
  </metadata>
  <g
     inkscape:label="Layer 1"
     inkscape:groupmode="layer"
     id="layer1"
     transform="translate(83.566589,-238.52045)">
    <g
       id="g820"
       transform="matrix(2.5,0,0,2.5,-149.59686,-434.33011)">
      <path
         id="path3694"
         d="m 50.28284,278.76519 c -0.131932,0.0317 -0.266467,0.0562 -0.39696,0.0947 -0.246278,0.0728 -0.491093,0.16 -0.730777,0.25712 -0.239679,0.0971 -0.472531,0.20336 -0.703711,0.32479 -0.231174,0.12142 -0.460312,0.25574 -0.681162,0.40148 -0.220782,0.14575 -0.436506,0.30357 -0.645058,0.47364 -0.208541,0.17007 -0.410074,0.35145 -0.604464,0.54584 l 8.769296,8.7738 -0.216519,0.21652 c -0.370358,0.55556 -0.80861,1.17056 -1.312692,1.8495 -0.504003,0.67898 -1.17737,1.439 -2.020911,2.28254 -1.357965,1.35795 -2.726509,2.28174 -4.104952,2.76523 -0.373369,0.13094 -0.7479,0.23902 -1.118723,0.32026 v 4.317 c 0.716841,-0.1348 1.435554,-0.33637 2.15172,-0.60899 0.287962,-0.10963 0.571971,-0.25732 0.85708,-0.39244 1.507485,-0.71447 2.97975,-1.7618 4.407219,-3.18925 0.771536,-0.77156 1.459077,-1.5283 2.065995,-2.26901 0.60693,-0.74066 1.15718,-1.4722 1.651029,-2.19232 0.493752,-0.72011 0.935304,-1.42183 1.326204,-2.11113 0.08077,-0.14237 0.151084,-0.28209 0.230068,-0.42403 0.121489,-0.23112 0.232132,-0.46864 0.329293,-0.70823 0.09722,-0.23961 0.184235,-0.48005 0.257135,-0.72626 0.03863,-0.13043 0.06291,-0.26506 0.09473,-0.39696 z"
         style="font-style:normal;font-variant:normal;font-weight:normal;font-stretch:normal;font-size:200px;line-height:125%;font-family:Shanti;-inkscape-font-specification:Shanti;letter-spacing:0px;word-spacing:0px;fill:#808080;fill-opacity:1;stroke:none;stroke-width:0.06047621"
         inkscape:connector-curvature="0"
         inkscape:export-filename="B:\Data\greater good\logos\greater good logo.png"
         inkscape:export-xdpi="58.189999"
         inkscape:export-ydpi="58.189999" />
      <path
         inkscape:connector-curvature="0"
         style="font-style:normal;font-variant:normal;font-weight:normal;font-stretch:normal;font-size:200px;line-height:125%;font-family:Shanti;-inkscape-font-specification:Shanti;letter-spacing:0px;word-spacing:0px;fill:#808080;fill-opacity:1;stroke:none;stroke-width:0.06047621"
         d="m 38.300932,270.98344 c -0.551662,0.0373 -1.086372,0.1234 -1.605904,0.25712 -1.038973,0.26749 -2.006164,0.68763 -2.896031,1.25856 -0.88989,0.57096 -1.671218,1.19761 -2.350204,1.87656 -0.853837,0.85386 -1.60024,1.79123 -2.232927,2.81483 -0.632658,1.02361 -1.121393,2.11316 -1.466056,3.27044 -0.344607,1.15736 -0.521296,2.36666 -0.536813,3.62682 -0.0154,1.26023 0.169091,2.54522 0.554859,3.85687 0.385774,1.31164 0.986501,2.64067 1.804376,3.98317 0.817863,1.34253 1.889239,2.67416 3.21631,4.00122 1.615156,1.61514 3.30602,2.91179 5.070317,3.88393 1.764285,0.97218 3.55231,1.54768 5.368036,1.7277 0.494489,0.049 0.990005,0.0606 1.484114,0.0451 l -8.525721,-8.53023 c -0.111341,-0.10693 -0.227863,-0.19175 -0.338314,-0.30222 -0.191617,-0.1916 -0.35806,-0.38194 -0.536802,-0.5729 -0.04071,-0.0435 -0.08177,-0.0874 -0.121795,-0.13081 -1.190693,-1.29223 -2.105706,-2.5715 -2.70658,-3.83432 -0.709845,-1.49161 -1.089814,-2.91843 -1.14126,-4.27638 -0.05141,-1.35792 0.1797,-2.62483 0.699186,-3.80274 0.519521,-1.17788 1.240666,-2.22403 2.15624,-3.13963 0.442345,-0.44234 0.90915,-0.82559 1.402913,-1.15481 0.493781,-0.32915 1.018195,-0.5648 1.57882,-0.70371 0.560677,-0.13882 1.165929,-0.16405 1.808906,-0.0767 0.642977,0.0875 1.326606,0.31862 2.056992,0.6992 l 2.562226,-3.54562 c -1.234446,-0.67897 -2.436637,-1.07703 -3.60425,-1.1954 -0.583831,-0.0591 -1.14897,-0.0734 -1.700632,-0.0361 z"
         id="path3696"
         inkscape:export-filename="B:\Data\greater good\logos\greater good logo.png"
         inkscape:export-xdpi="58.189999"
         inkscape:export-ydpi="58.189999" />
    </g>
  </g>
</svg>
